<?xml version="1.0" encoding="UTF-8"?>
<svg width="300" height="300" xmlns="http://www.w3.org/2000/svg">
  <rect width="100%" height="100%" fill="#f8f9fa"/>
  <rect x="0" y="0" width="300" height="300" fill="url(#bgGradient)" opacity="0.3"/>
  
  <!-- Background gradient -->
  <defs>
    <linearGradient id="bgGradient" x1="0%" y1="0%" x2="100%" y2="100%">
      <stop offset="0%" style="stop-color:#e9ecef;stop-opacity:1" />
      <stop offset="100%" style="stop-color:#dee2e6;stop-opacity:1" />
    </linearGradient>
    <linearGradient id="productGradient" x1="0%" y1="0%" x2="100%" y2="100%">
      <stop offset="0%" style="stop-color:#4682B4;stop-opacity:0.8" />
      <stop offset="100%" style="stop-color:#134f81;stop-opacity:0.9" />
    </linearGradient>
    <filter id="shadow" x="-20%" y="-20%" width="140%" height="140%">
      <feGaussianBlur in="SourceAlpha" stdDeviation="2"/>
      <feOffset dx="1" dy="1" result="offsetblur"/>
      <feFlood flood-color="rgba(0,0,0,0.2)"/>
      <feComposite in2="offsetblur" operator="in"/>
      <feMerge>
        <feMergeNode/>
        <feMergeNode in="SourceGraphic"/>
      </feMerge>
    </filter>
  </defs>
  
  <!-- Product visualization -->
  <path d="M120 100 L120 200 L140 200 L150 180 L160 200 L180 200 L180 100 Z" fill="url(#productGradient)" filter="url(#shadow)"/>
        <path d="M120 100 L100 120 L120 120 Z" fill="#4682B4" opacity="0.3"/>
        <path d="M180 100 L200 120 L180 120 Z" fill="#4682B4" opacity="0.3"/>
        <rect x="135" y="110" width="30" height="40" fill="#87CEEB" opacity="0.2"/>
        <line x1="140" y1="160" x2="140" y2="190" stroke="#fff" stroke-width="2" opacity="0.3"/>
        <line x1="160" y1="160" x2="160" y2="190" stroke="#fff" stroke-width="2" opacity="0.3"/>
  
  <!-- Product label -->
  <rect x="50" y="230" width="200" height="40" rx="5" fill="rgba(255,255,255,0.9)" stroke="#ddd"/>
  <text x="150" y="255" font-family="Arial, sans-serif" font-size="14" font-weight="bold" text-anchor="middle" fill="#333">Kot Pantolon</text>
</svg>